# xmcd
#
# Track frame offsets:
#	150
#	16637
#	28505
#	44221
#	63474
#	80428
#	93831
#	112626
#
# Disc length: 1531 seconds
#
# Revision: 0
# Processed by: cddbd v1.5.2PL0 Copyright (c) Steve Scherf et al.
# Submitted via: EasyCDDAExtractor 10.2.0.1
#
DISCID=5405f908
DTITLE=Various Artist - The Disc-Vol. 8
DYEAR=1900
DGENRE=Gospel
TTITLE0=Mike Manuel - Phone In Heaven
TTITLE1=Chris Sherrill - Small Investment
TTITLE2=Peter Lewis Whitebird - Job's Joy
TTITLE3=Bruce Trent - We're Here To Praise His name
TTITLE4=Jeff Collier - I'm Gonna Live What's Right
TTITLE5=Velma Puckett - I'll Close My Eyes
TTITLE6=Gary Brock - Love Made Him Stay
TTITLE7=Mike Manuel - Phone In Heaven (Promo)
EXTD=
EXTT0=
EXTT1=
EXTT2=
EXTT3=
EXTT4=
EXTT5=
EXTT6=
EXTT7=
PLAYORDER=
